<svg width="576" height="576" viewBox="0 0 576 576" fill="none" xmlns="http://www.w3.org/2000/svg">
  <rect x="16" y="16" width="544" height="544" rx="272" stroke="currentColor" style="stroke:currentColor;stroke-opacity:1;" stroke-width="32"/>
  <circle cx="288" cy="288" r="255.95" stroke="currentColor" style="stroke:currentColor;stroke-opacity:1;" stroke-width="0.1"/>
  <path d="M160 160C230.14 160 287.104 216.416 287.989 286.346L288.011 289.654C288.896 359.584 345.86 416 416 416C486.692 416 544 358.692 544 288C544 321.618 537.378 354.907 524.513 385.967C511.647 417.026 492.791 445.248 469.02 469.02C445.248 492.791 417.026 511.647 385.967 524.513C354.907 537.378 321.618 544 288 544C254.382 544 221.093 537.378 190.033 524.513C158.974 511.647 130.752 492.791 106.98 469.02C83.2087 445.248 64.3525 417.026 51.4873 385.967C38.8231 355.393 32.2084 322.658 32.0049 289.575L32 288C32 217.308 89.3076 160 160 160ZM190.34 214C186.562 214 183.451 215.222 181.006 217.667L119.667 279.006C118.352 280.339 117.409 281.783 116.84 283.339C116.271 284.895 115.991 286.562 116 288.34C116.009 290.118 116.289 291.784 116.84 293.34C117.391 294.896 118.334 296.34 119.667 297.674L181.006 359.013C183.45 361.457 186.562 362.68 190.34 362.68C194.118 362.68 197.229 361.457 199.674 359.013C202.118 356.568 203.341 353.456 203.341 349.678C203.341 345.9 202.118 342.788 199.674 340.344L147.67 288.34L199.674 236.335C202.118 233.89 203.341 230.779 203.341 227.001C203.341 223.223 202.118 220.112 199.674 217.667C197.229 215.222 194.118 214 190.34 214Z" fill="currentColor" style="fill:currentColor;fill-opacity:1;"/>
  <path d="M427.671 288.34L375.667 236.335C373.222 233.891 372 230.779 372 227.001C372 223.223 373.222 220.112 375.667 217.667C378.112 215.222 381.223 214 385.001 214C388.779 214 391.891 215.222 394.335 217.667L455.674 279.005C457.007 280.339 457.954 281.784 458.514 283.339C459.074 284.895 459.35 286.562 459.341 288.34C459.332 290.118 459.056 291.784 458.514 293.34C457.972 294.896 457.025 296.34 455.674 297.674L394.335 359.012C391.891 361.457 388.779 362.679 385.001 362.679C381.223 362.679 378.112 361.457 375.667 359.012C373.222 356.568 372 353.456 372 349.678C372 345.9 373.222 342.789 375.667 340.344L427.671 288.34Z" fill="currentColor" style="fill:currentColor;fill-opacity:1;"/>
</svg>